<svg width="22" height="17" viewBox="0 0 22 17" fill="none" xmlns="http://www.w3.org/2000/svg">
<path d="M1.94444 16.5278C1.40972 16.5278 0.951968 16.3374 0.571181 15.9567C0.190394 15.5759 0 15.1181 0 14.5834C0 14.0487 0.190394 13.5909 0.571181 13.2101C0.951968 12.8293 1.40972 12.6389 1.94444 12.6389C2.04167 12.6389 2.12674 12.6389 2.19965 12.6389C2.27257 12.6389 2.34954 12.6551 2.43056 12.6876L6.85417 8.26394C6.82176 8.18292 6.80556 8.10596 6.80556 8.03304C6.80556 7.96012 6.80556 7.87505 6.80556 7.77783C6.80556 7.24311 6.99595 6.78535 7.37674 6.40457C7.75752 6.02378 8.21528 5.83339 8.75 5.83339C9.28472 5.83339 9.74248 6.02378 10.1233 6.40457C10.5041 6.78535 10.6944 7.24311 10.6944 7.77783C10.6944 7.81024 10.6782 7.97228 10.6458 8.26394L13.125 10.7431C13.206 10.7107 13.283 10.6945 13.3559 10.6945C13.4288 10.6945 13.5139 10.6945 13.6111 10.6945C13.7083 10.6945 13.7934 10.6945 13.8663 10.6945C13.9392 10.6945 14.0162 10.7107 14.0972 10.7431L17.5486 7.29172C17.5162 7.2107 17.5 7.13373 17.5 7.06082C17.5 6.9879 17.5 6.90283 17.5 6.80561C17.5 6.27089 17.6904 5.81313 18.0712 5.43235C18.452 5.05156 18.9097 4.86117 19.4444 4.86117C19.9792 4.86117 20.4369 5.05156 20.8177 5.43235C21.1985 5.81313 21.3889 6.27089 21.3889 6.80561C21.3889 7.34033 21.1985 7.79809 20.8177 8.17887C20.4369 8.55966 19.9792 8.75005 19.4444 8.75005C19.3472 8.75005 19.2622 8.75005 19.1892 8.75005C19.1163 8.75005 19.0394 8.73385 18.9583 8.70144L15.5069 12.1528C15.5394 12.2339 15.5556 12.3108 15.5556 12.3837C15.5556 12.4567 15.5556 12.5417 15.5556 12.6389C15.5556 13.1737 15.3652 13.6314 14.9844 14.0122C14.6036 14.393 14.1458 14.5834 13.6111 14.5834C13.0764 14.5834 12.6186 14.393 12.2378 14.0122C11.8571 13.6314 11.6667 13.1737 11.6667 12.6389C11.6667 12.5417 11.6667 12.4567 11.6667 12.3837C11.6667 12.3108 11.6829 12.2339 11.7153 12.1528L9.23611 9.67367C9.15509 9.70607 9.07812 9.72228 9.00521 9.72228C8.93229 9.72228 8.84722 9.72228 8.75 9.72228C8.71759 9.72228 8.55556 9.70607 8.26389 9.67367L3.84028 14.0973C3.87269 14.1783 3.88889 14.2553 3.88889 14.3282C3.88889 14.4011 3.88889 14.4862 3.88889 14.5834C3.88889 15.1181 3.6985 15.5759 3.31771 15.9567C2.93692 16.3374 2.47917 16.5278 1.94444 16.5278ZM2.91667 6.7813L2.30903 5.4688L0.996528 4.86117L2.30903 4.25353L2.91667 2.94103L3.52431 4.25353L4.83681 4.86117L3.52431 5.4688L2.91667 6.7813ZM13.6111 5.83339L12.6875 3.84033L10.6944 2.91672L12.6875 1.99311L13.6111 5.34058e-05L14.5347 1.99311L16.5278 2.91672L14.5347 3.84033L13.6111 5.83339Z" fill="#137FEC"/>
</svg>
