<svg width="20" height="21" viewBox="0 0 20 21" fill="none" xmlns="http://www.w3.org/2000/svg">
<path d="M1.57986 12.663L0 11.5207L4.86111 3.74289L7.77778 7.14567L11.6667 0.826223L14.5833 5.20122L17.8646 -0.000164032L19.4444 1.1422L14.6319 8.77414L11.7396 4.42345L8.04514 10.4269L5.10417 6.99984L1.57986 12.663ZM13.125 16.5276C13.8056 16.5276 14.3808 16.2927 14.8507 15.8228C15.3206 15.3528 15.5556 14.7776 15.5556 14.0971C15.5556 13.4165 15.3206 12.8413 14.8507 12.3714C14.3808 11.9015 13.8056 11.6665 13.125 11.6665C12.4444 11.6665 11.8692 11.9015 11.3993 12.3714C10.9294 12.8413 10.6944 13.4165 10.6944 14.0971C10.6944 14.7776 10.9294 15.3528 11.3993 15.8228C11.8692 16.2927 12.4444 16.5276 13.125 16.5276ZM18.0833 20.4165L15.4583 17.7915C15.1181 18.0184 14.7494 18.1885 14.3524 18.3019C13.9554 18.4153 13.5463 18.4721 13.125 18.4721C11.9097 18.4721 10.8767 18.0467 10.026 17.196C9.17535 16.3453 8.75 15.3123 8.75 14.0971C8.75 12.8818 9.17535 11.8488 10.026 10.9981C10.8767 10.1474 11.9097 9.72206 13.125 9.72206C14.3403 9.72206 15.3733 10.1474 16.224 10.9981C17.0747 11.8488 17.5 12.8818 17.5 14.0971C17.5 14.5184 17.4433 14.9275 17.3299 15.3245C17.2164 15.7215 17.0463 16.0901 16.8194 16.4304L19.4444 19.0554L18.0833 20.4165Z" fill="white"/>
</svg>
