<svg width="28" height="28" viewBox="0 0 28 28" fill="none" xmlns="http://www.w3.org/2000/svg">
<path d="M13.75 16.25L11.25 13.75L13.75 11.25L16.25 13.75L13.75 16.25ZM11.0938 8.90625L7.96875 5.78125L13.75 0L19.5312 5.78125L16.4062 8.90625L13.75 6.25L11.0938 8.90625ZM5.78125 19.5312L0 13.75L5.78125 7.96875L8.90625 11.0938L6.25 13.75L8.90625 16.4062L5.78125 19.5312ZM21.7188 19.5312L18.5938 16.4062L21.25 13.75L18.5938 11.0938L21.7188 7.96875L27.5 13.75L21.7188 19.5312ZM13.75 27.5L7.96875 21.7188L11.0938 18.5938L13.75 21.25L16.4062 18.5938L19.5312 21.7188L13.75 27.5Z" fill="#137FEC"/>
</svg>
