<svg width="18" height="19" viewBox="0 0 18 19" fill="none" xmlns="http://www.w3.org/2000/svg">
<path d="M5.83333 18.4722V13.6111C4.8287 13.53 3.84433 13.4166 2.88021 13.2708C1.91609 13.1249 0.956019 12.9143 0 12.6388L0.486111 10.6944C1.83102 11.0671 3.19213 11.3223 4.56944 11.46C5.94676 11.5977 7.34028 11.6666 8.75 11.6666C10.1435 11.6666 11.5289 11.5977 12.9062 11.46C14.2836 11.3223 15.6528 11.0671 17.0139 10.6944L17.5 12.6388C16.5278 12.9143 15.5596 13.1249 14.5955 13.2708C13.6314 13.4166 12.6551 13.53 11.6667 13.6111V18.4722H5.83333ZM8.75 10.6944C8.19907 10.6944 7.73727 10.508 7.36458 10.1354C6.9919 9.76268 6.80556 9.30087 6.80556 8.74994C6.80556 8.21522 6.9919 7.75747 7.36458 7.37668C7.73727 6.99589 8.19907 6.8055 8.75 6.8055C9.28472 6.8055 9.74248 6.99589 10.1233 7.37668C10.5041 7.75747 10.6944 8.21522 10.6944 8.74994C10.6944 9.30087 10.5041 9.76268 10.1233 10.1354C9.74248 10.508 9.28472 10.6944 8.75 10.6944ZM1.45833 7.77772C1.03704 7.77772 0.688657 7.63999 0.413194 7.36453C0.137731 7.08906 0 6.74069 0 6.31939C0 5.9143 0.137731 5.56997 0.413194 5.2864C0.688657 5.00284 1.03704 4.86106 1.45833 4.86106C1.86343 4.86106 2.20775 5.00284 2.49132 5.2864C2.77488 5.56997 2.91667 5.9143 2.91667 6.31939C2.91667 6.74069 2.77488 7.08906 2.49132 7.36453C2.20775 7.63999 1.86343 7.77772 1.45833 7.77772ZM16.0417 7.77772C15.6204 7.77772 15.272 7.63999 14.9965 7.36453C14.7211 7.08906 14.5833 6.74069 14.5833 6.31939C14.5833 5.9143 14.7211 5.56997 14.9965 5.2864C15.272 5.00284 15.6204 4.86106 16.0417 4.86106C16.4468 4.86106 16.7911 5.00284 17.0747 5.2864C17.3582 5.56997 17.5 5.9143 17.5 6.31939C17.5 6.74069 17.3582 7.08906 17.0747 7.36453C16.7911 7.63999 16.4468 7.77772 16.0417 7.77772ZM4.13194 4.13189C3.71065 4.13189 3.36227 3.99416 3.08681 3.71869C2.81134 3.44323 2.67361 3.09485 2.67361 2.67356C2.67361 2.26846 2.81134 1.92413 3.08681 1.64057C3.36227 1.357 3.71065 1.21522 4.13194 1.21522C4.53704 1.21522 4.88137 1.357 5.16493 1.64057C5.4485 1.92413 5.59028 2.26846 5.59028 2.67356C5.59028 3.09485 5.4485 3.44323 5.16493 3.71869C4.88137 3.99416 4.53704 4.13189 4.13194 4.13189ZM13.3681 4.13189C12.9468 4.13189 12.5984 3.99416 12.3229 3.71869C12.0475 3.44323 11.9097 3.09485 11.9097 2.67356C11.9097 2.26846 12.0475 1.92413 12.3229 1.64057C12.5984 1.357 12.9468 1.21522 13.3681 1.21522C13.7731 1.21522 14.1175 1.357 14.401 1.64057C14.6846 1.92413 14.8264 2.26846 14.8264 2.67356C14.8264 3.09485 14.6846 3.44323 14.401 3.71869C14.1175 3.99416 13.7731 4.13189 13.3681 4.13189ZM8.75 2.91661C8.3287 2.91661 7.98032 2.77888 7.70486 2.50342C7.4294 2.22795 7.29167 1.87957 7.29167 1.45828C7.29167 1.05318 7.4294 0.708857 7.70486 0.425291C7.98032 0.141726 8.3287 -5.53131e-05 8.75 -5.53131e-05C9.15509 -5.53131e-05 9.49942 0.141726 9.78299 0.425291C10.0666 0.708857 10.2083 1.05318 10.2083 1.45828C10.2083 1.87957 10.0666 2.22795 9.78299 2.50342C9.49942 2.77888 9.15509 2.91661 8.75 2.91661Z" fill="white"/>
</svg>
