<svg width="22" height="16" viewBox="0 0 22 16" fill="none" xmlns="http://www.w3.org/2000/svg">
<path d="M5.34722 15.5557C3.87269 15.5557 2.61285 15.0452 1.56771 14.0244C0.522569 13.0036 0 11.7559 0 10.2814C0 9.01747 0.380787 7.89131 1.14236 6.90289C1.90394 5.91446 2.90046 5.28252 4.13194 5.00705C4.53704 3.51631 5.34722 2.30914 6.5625 1.38552C7.77778 0.461914 9.15509 0.000108719 10.6944 0.000108719C12.5903 0.000108719 14.1985 0.660409 15.5191 1.98101C16.8397 3.30161 17.5 4.90983 17.5 6.80566C18.6181 6.93529 19.5457 7.41735 20.283 8.25184C21.0203 9.08634 21.3889 10.0626 21.3889 11.1807C21.3889 12.3959 20.9635 13.4289 20.1128 14.2796C19.2622 15.1303 18.2292 15.5557 17.0139 15.5557H5.34722ZM5.34722 13.6112H17.0139C17.6944 13.6112 18.2697 13.3763 18.7396 12.9064C19.2095 12.4365 19.4444 11.8612 19.4444 11.1807C19.4444 10.5001 19.2095 9.92488 18.7396 9.45497C18.2697 8.98506 17.6944 8.75011 17.0139 8.75011H15.5556V6.80566C15.5556 5.46076 15.0816 4.31434 14.1337 3.36643C13.1858 2.41851 12.0394 1.94455 10.6944 1.94455C9.34954 1.94455 8.20312 2.41851 7.25521 3.36643C6.30729 4.31434 5.83333 5.46076 5.83333 6.80566H5.34722C4.40741 6.80566 3.60532 7.13784 2.94097 7.80219C2.27662 8.46654 1.94444 9.26863 1.94444 10.2084C1.94444 11.1483 2.27662 11.9503 2.94097 12.6147C3.60532 13.279 4.40741 13.6112 5.34722 13.6112Z" fill="#94A3B8"/>
</svg>
