<svg width="20" height="16" viewBox="0 0 20 16" fill="none" xmlns="http://www.w3.org/2000/svg">
<path d="M8.21528 11.1807C8.21528 11.1807 8.3125 11.2779 8.50694 11.4723C8.70139 11.6668 9.10648 11.7599 9.72222 11.7518C10.338 11.7437 10.7917 11.5209 11.0833 11.0834L16.5278 2.91677L8.36111 8.36122C7.92361 8.65289 7.69271 9.09849 7.6684 9.69803C7.6441 10.2976 7.82639 10.7918 8.21528 11.1807ZM9.72222 0.000108719C10.6782 0.000108719 11.5978 0.133789 12.4809 0.40115C13.364 0.668511 14.1944 1.06955 14.9722 1.60427L13.125 2.77094C12.5903 2.49548 12.0353 2.28888 11.4601 2.15115C10.8848 2.01342 10.3056 1.94455 9.72222 1.94455C7.56713 1.94455 5.73206 2.70208 4.21701 4.21712C2.70197 5.73217 1.94444 7.56724 1.94444 9.72233C1.94444 10.4029 2.03762 11.0753 2.22396 11.7397C2.4103 12.404 2.67361 13.0279 3.01389 13.6112H16.4306C16.8032 12.9955 17.0747 12.3554 17.2448 11.6911C17.4149 11.0267 17.5 10.3381 17.5 9.62511C17.5 9.04178 17.4311 8.47465 17.2934 7.92372C17.1557 7.37279 16.9491 6.83807 16.6736 6.31955L17.8403 4.47233C18.3264 5.2339 18.7112 6.04409 18.9948 6.90289C19.2784 7.76168 19.4282 8.65289 19.4444 9.5765C19.4606 10.5001 19.3553 11.3832 19.1285 12.2258C18.9016 13.0684 18.5694 13.8705 18.1319 14.6321C17.9537 14.9237 17.7106 15.1506 17.4028 15.3126C17.0949 15.4746 16.7708 15.5557 16.4306 15.5557H3.01389C2.67361 15.5557 2.34954 15.4746 2.04167 15.3126C1.7338 15.1506 1.49074 14.9237 1.3125 14.6321C0.891204 13.9029 0.56713 13.1292 0.340278 12.3109C0.113426 11.4926 0 10.6297 0 9.72233C0 8.37742 0.255208 7.11759 0.765625 5.94282C1.27604 4.76805 1.9728 3.73911 2.8559 2.85601C3.739 1.97291 4.77199 1.27615 5.95486 0.765734C7.13773 0.255317 8.39352 0.000108719 9.72222 0.000108719Z" fill="#94A3B8"/>
</svg>
