<svg width="30" height="30" viewBox="0 0 30 30" fill="none" xmlns="http://www.w3.org/2000/svg">
<path d="M3 30C2.175 30 1.46875 29.7063 0.88125 29.1187C0.29375 28.5312 0 27.825 0 27V10.5C0 9.675 0.29375 8.96875 0.88125 8.38125C1.46875 7.79375 2.175 7.5 3 7.5H10.5V3C10.5 2.175 10.7938 1.46875 11.3813 0.881248C11.9688 0.293749 12.675 -1.90735e-06 13.5 -1.90735e-06H16.5C17.325 -1.90735e-06 18.0312 0.293749 18.6188 0.881248C19.2063 1.46875 19.5 2.175 19.5 3V7.5H27C27.825 7.5 28.5313 7.79375 29.1188 8.38125C29.7063 8.96875 30 9.675 30 10.5V27C30 27.825 29.7063 28.5312 29.1188 29.1187C28.5313 29.7063 27.825 30 27 30H3ZM3 27H27V10.5H19.5C19.5 11.325 19.2063 12.0312 18.6188 12.6187C18.0312 13.2062 17.325 13.5 16.5 13.5H13.5C12.675 13.5 11.9688 13.2062 11.3813 12.6187C10.7938 12.0312 10.5 11.325 10.5 10.5H3V27ZM6 24H15V23.325C15 22.9 14.8813 22.5062 14.6438 22.1437C14.4063 21.7812 14.075 21.5 13.65 21.3C13.15 21.075 12.6438 20.9062 12.1313 20.7937C11.6188 20.6812 11.075 20.625 10.5 20.625C9.925 20.625 9.38125 20.6812 8.86875 20.7937C8.35625 20.9062 7.85 21.075 7.35 21.3C6.925 21.5 6.59375 21.7812 6.35625 22.1437C6.11875 22.5062 6 22.9 6 23.325V24ZM18 21.75H24V19.5H18V21.75ZM10.5 19.5C10.5 19.5 10.6562 19.5 10.9688 19.5C11.2812 19.5 11.6562 19.2812 12.0938 18.8438C12.5313 18.4062 12.75 17.875 12.75 17.25C12.75 16.625 12.5313 16.0937 12.0938 15.6562C11.6562 15.2187 11.125 15 10.5 15C9.875 15 9.34375 15.2187 8.90625 15.6562C8.46875 16.0937 8.25 16.625 8.25 17.25C8.25 17.875 8.46875 18.4062 8.90625 18.8438C9.34375 19.2812 9.875 19.5 10.5 19.5ZM18 17.25H24V15H18V17.25ZM13.5 10.5H16.5V3H13.5V10.5Z" fill="#137FEC"/>
</svg>
