<svg width="16" height="21" viewBox="0 0 16 21" fill="none" xmlns="http://www.w3.org/2000/svg">
<path d="M1.94444 20.4165C1.40972 20.4165 0.951968 20.2261 0.571181 19.8453C0.190394 19.4645 0 19.0068 0 18.4721V8.74984C0 8.21511 0.190394 7.75736 0.571181 7.37657C0.951968 6.99578 1.40972 6.80539 1.94444 6.80539H2.91667V4.86095C2.91667 3.51604 3.39062 2.36963 4.33854 1.42171C5.28646 0.473793 6.43287 -0.000164032 7.77778 -0.000164032C9.12269 -0.000164032 10.2691 0.473793 11.217 1.42171C12.1649 2.36963 12.6389 3.51604 12.6389 4.86095V6.80539H13.6111C14.1458 6.80539 14.6036 6.99578 14.9844 7.37657C15.3652 7.75736 15.5556 8.21511 15.5556 8.74984V18.4721C15.5556 19.0068 15.3652 19.4645 14.9844 19.8453C14.6036 20.2261 14.1458 20.4165 13.6111 20.4165H1.94444ZM1.94444 18.4721H13.6111V8.74984H1.94444V18.4721ZM7.77778 15.5554C7.77778 15.5554 7.91146 15.5554 8.17882 15.5554C8.44618 15.5554 8.77026 15.365 9.15104 14.9842C9.53183 14.6034 9.72222 14.1457 9.72222 13.6109C9.72222 13.0762 9.53183 12.6185 9.15104 12.2377C8.77026 11.8569 8.3125 11.6665 7.77778 11.6665C7.24306 11.6665 6.7853 11.8569 6.40451 12.2377C6.02373 12.6185 5.83333 13.0762 5.83333 13.6109C5.83333 14.1457 6.02373 14.6034 6.40451 14.9842C6.7853 15.365 7.24306 15.5554 7.77778 15.5554ZM4.86111 6.80539H10.6944V4.86095C10.6944 4.05076 10.4109 3.3621 9.84375 2.79498C9.27662 2.22784 8.58796 1.94428 7.77778 1.94428C6.96759 1.94428 6.27894 2.22784 5.71181 2.79498C5.14468 3.3621 4.86111 4.05076 4.86111 4.86095V6.80539Z" fill="#94A3B8"/>
</svg>
