<svg width="22" height="22" viewBox="0 0 22 22" fill="none" xmlns="http://www.w3.org/2000/svg">
<path d="M10.6944 12.6387L8.75 10.6942L10.6944 8.74978L12.6389 10.6942L10.6944 12.6387ZM8.62847 6.92687L6.19792 4.49631L10.6944 -0.000217438L15.191 4.49631L12.7604 6.92687L10.6944 4.86089L8.62847 6.92687ZM4.49653 15.1908L0 10.6942L4.49653 6.1977L6.92708 8.62825L4.86111 10.6942L6.92708 12.7602L4.49653 15.1908ZM16.8924 15.1908L14.4618 12.7602L16.5278 10.6942L14.4618 8.62825L16.8924 6.1977L21.3889 10.6942L16.8924 15.1908ZM10.6944 21.3887L6.19792 16.8921L8.62847 14.4616L10.6944 16.5276L12.7604 14.4616L15.191 16.8921L10.6944 21.3887Z" fill="#94A3B8"/>
</svg>
