<svg width="20" height="19" viewBox="0 0 20 19" fill="none" xmlns="http://www.w3.org/2000/svg">
<path d="M4.86111 18.4722C3.5162 18.4722 2.36979 17.9982 1.42188 17.0503C0.473958 16.1024 0 14.956 0 13.6111C0 12.4282 0.368634 11.3952 1.1059 10.5121C1.84317 9.629 2.77083 9.07402 3.88889 8.84717V10.8645C3.32176 11.059 2.8559 11.4074 2.49132 11.9097C2.12674 12.412 1.94444 12.9791 1.94444 13.6111C1.94444 14.4212 2.22801 15.1099 2.79514 15.677C3.36227 16.2442 4.05093 16.5277 4.86111 16.5277C5.6713 16.5277 6.35995 16.2442 6.92708 15.677C7.49421 15.1099 7.77778 14.4212 7.77778 13.6111V12.6388H13.4896C13.6192 12.493 13.7772 12.3755 13.9635 12.2864C14.1499 12.1973 14.3565 12.1527 14.5833 12.1527C14.9884 12.1527 15.3328 12.2945 15.6163 12.5781C15.8999 12.8616 16.0417 13.206 16.0417 13.6111C16.0417 14.0161 15.8999 14.3605 15.6163 14.644C15.3328 14.9276 14.9884 15.0694 14.5833 15.0694C14.3565 15.0694 14.1499 15.0248 13.9635 14.9357C13.7772 14.8466 13.6192 14.7291 13.4896 14.5833H9.625C9.39815 15.7013 8.84317 16.629 7.96007 17.3663C7.07697 18.1035 6.04398 18.4722 4.86111 18.4722ZM14.5833 18.4722C13.6759 18.4722 12.8536 18.2494 12.1163 17.8038C11.3791 17.3582 10.7998 16.7708 10.3785 16.0416H12.9792C13.206 16.2036 13.4572 16.3252 13.7326 16.4062C14.0081 16.4872 14.2917 16.5277 14.5833 16.5277C15.3935 16.5277 16.0822 16.2442 16.6493 15.677C17.2164 15.1099 17.5 14.4212 17.5 13.6111C17.5 12.8009 17.2164 12.1122 16.6493 11.5451C16.0822 10.978 15.3935 10.6944 14.5833 10.6944C14.2593 10.6944 13.9595 10.7389 13.684 10.8281C13.4086 10.9172 13.1493 11.0509 12.9062 11.2291L9.94097 6.29508C9.60069 6.23027 9.31713 6.06823 9.09028 5.80897C8.86343 5.54971 8.75 5.23374 8.75 4.86106C8.75 4.45596 8.89178 4.11163 9.17535 3.82807C9.45891 3.5445 9.80324 3.40272 10.2083 3.40272C10.6134 3.40272 10.9578 3.5445 11.2413 3.82807C11.5249 4.11163 11.6667 4.45596 11.6667 4.86106C11.6667 4.94207 11.6667 5.01094 11.6667 5.06765C11.6667 5.12437 11.6505 5.19323 11.6181 5.27425L13.7326 8.82286C13.8623 8.79045 14 8.7702 14.1458 8.7621C14.2917 8.754 14.4375 8.74994 14.5833 8.74994C15.9282 8.74994 17.0747 9.2239 18.0226 10.1718C18.9705 11.1197 19.4444 12.2661 19.4444 13.6111C19.4444 14.956 18.9705 16.1024 18.0226 17.0503C17.0747 17.9982 15.9282 18.4722 14.5833 18.4722ZM4.86111 15.0694C4.45602 15.0694 4.11169 14.9276 3.82812 14.644C3.54456 14.3605 3.40278 14.0161 3.40278 13.6111C3.40278 13.2546 3.5162 12.9467 3.74306 12.6874C3.96991 12.4282 4.24537 12.258 4.56944 12.177L6.85417 8.38536C6.38426 7.94786 6.01562 7.42529 5.74826 6.81765C5.4809 6.21001 5.34722 5.55781 5.34722 4.86106C5.34722 3.51615 5.82118 2.36974 6.7691 1.42182C7.71701 0.473902 8.86343 -5.53131e-05 10.2083 -5.53131e-05C11.5532 -5.53131e-05 12.6997 0.473902 13.6476 1.42182C14.5955 2.36974 15.0694 3.51615 15.0694 4.86106H13.125C13.125 4.05087 12.8414 3.36221 12.2743 2.79508C11.7072 2.22795 11.0185 1.94439 10.2083 1.94439C9.39815 1.94439 8.70949 2.22795 8.14236 2.79508C7.57523 3.36221 7.29167 4.05087 7.29167 4.86106C7.29167 5.55781 7.50232 6.16951 7.92361 6.69613C8.34491 7.22275 8.87963 7.55897 9.52778 7.70481L6.24653 13.1736C6.27894 13.2546 6.29919 13.3275 6.30729 13.3923C6.31539 13.4571 6.31944 13.53 6.31944 13.6111C6.31944 14.0161 6.17766 14.3605 5.8941 14.644C5.61053 14.9276 5.2662 15.0694 4.86111 15.0694Z" fill="#94A3B8"/>
</svg>
